<svg width="16" height="17" viewBox="0 0 16 17" fill="none" xmlns="http://www.w3.org/2000/svg">
<path d="M10.5689 14.6384C10.2877 13.0246 9.81892 11.3571 9.16267 9.63616H9.14258L9.12249 9.64621C9.01535 9.68638 8.87137 9.7433 8.69057 9.81696C8.50977 9.88393 8.1716 10.048 7.67606 10.3092C7.18052 10.5636 6.72182 10.8382 6.29994 11.1328C5.87807 11.4208 5.43945 11.8025 4.9841 12.2779C4.52874 12.7533 4.18387 13.2489 3.9495 13.7645L3.79883 13.654C5.03097 14.6585 6.43053 15.1607 7.99749 15.1607C8.88142 15.1607 9.73856 14.9866 10.5689 14.6384ZM8.71066 8.54129C8.57003 8.21317 8.39258 7.84152 8.17829 7.42634C6.0957 8.04911 3.84236 8.36049 1.41825 8.36049C1.41155 8.40737 1.4082 8.47768 1.4082 8.57143C1.4082 9.40179 1.55552 10.1953 1.85017 10.952C2.14481 11.702 2.55999 12.375 3.0957 12.971C3.43052 12.375 3.84236 11.8192 4.33119 11.3036C4.82673 10.7812 5.30552 10.3627 5.76758 10.048C6.22963 9.73326 6.6649 9.46205 7.07338 9.23438C7.48856 9.0067 7.82338 8.84598 8.07785 8.75223L8.4495 8.62165C8.47628 8.61496 8.51981 8.60491 8.58008 8.59152C8.64035 8.57143 8.68387 8.55469 8.71066 8.54129ZM7.63588 6.41183C6.83231 4.98549 6.01535 3.71987 5.18499 2.61495C4.26088 3.05022 3.4774 3.67299 2.83454 4.48326C2.19169 5.29353 1.76311 6.20424 1.54883 7.2154C3.57115 7.2154 5.60017 6.94754 7.63588 6.41183ZM14.5064 9.61607C13.1002 9.21429 11.7307 9.11719 10.3982 9.32478C10.9807 10.9252 11.4093 12.4955 11.6839 14.0357C12.4272 13.5335 13.0466 12.9007 13.5421 12.1373C14.0377 11.3672 14.3591 10.5268 14.5064 9.61607ZM6.42048 2.17299C6.41378 2.17299 6.40709 2.17634 6.40039 2.18304C6.40709 2.17634 6.41378 2.17299 6.42048 2.17299ZM12.3468 3.62946C11.108 2.53125 9.6582 1.98214 7.99749 1.98214C7.48856 1.98214 6.96959 2.04576 6.44057 2.17299C7.3178 3.31138 8.14146 4.5904 8.91155 6.01004C9.37361 5.83594 9.80887 5.63504 10.2174 5.40737C10.6258 5.17299 10.9473 4.9654 11.1816 4.7846C11.4227 4.60379 11.6437 4.41295 11.8446 4.21205C12.0455 4.01116 12.1694 3.87723 12.2162 3.81027C12.2698 3.73661 12.3133 3.67634 12.3468 3.62946ZM14.5868 8.50112C14.5667 6.94754 14.0678 5.57478 13.0901 4.38281L13.0801 4.39286C13.0198 4.47321 12.9562 4.55692 12.8892 4.64397C12.8223 4.72433 12.6749 4.87165 12.4473 5.08594C12.2263 5.30022 11.9886 5.50446 11.7341 5.69866C11.4863 5.88616 11.1515 6.10379 10.7296 6.35156C10.3145 6.59263 9.87584 6.80692 9.41378 6.99442C9.58119 7.34933 9.72852 7.66741 9.85575 7.94866C9.86914 7.98214 9.88923 8.03906 9.91602 8.11942C9.9495 8.19978 9.97628 8.2567 9.99637 8.29018C10.2374 8.2567 10.4852 8.23326 10.7397 8.21987C11.0008 8.20647 11.2486 8.19978 11.483 8.19978C11.7174 8.19978 11.9484 8.20647 12.1761 8.21987C12.4037 8.22656 12.618 8.23995 12.8189 8.26004C13.0198 8.27344 13.2073 8.29018 13.3814 8.31027C13.5622 8.33036 13.7229 8.35379 13.8636 8.38058C14.0109 8.40067 14.1348 8.42076 14.2352 8.44085C14.3357 8.45424 14.4194 8.46763 14.4863 8.48103L14.5868 8.50112ZM14.6772 4.70424C15.3669 5.88281 15.7118 7.17187 15.7118 8.57143C15.7118 9.97098 15.3669 11.2634 14.6772 12.4487C13.9874 13.6272 13.0499 14.5614 11.8647 15.2511C10.6861 15.9408 9.39704 16.2857 7.99749 16.2857C6.59794 16.2857 5.30552 15.9408 4.12026 15.2511C2.94169 14.5614 2.00753 13.6272 1.3178 12.4487C0.628069 11.2634 0.283203 9.97098 0.283203 8.57143C0.283203 7.17187 0.628069 5.88281 1.3178 4.70424C2.00753 3.51897 2.94169 2.58147 4.12026 1.89174C5.30552 1.20201 6.59794 0.857142 7.99749 0.857142C9.39704 0.857142 10.6861 1.20201 11.8647 1.89174C13.0499 2.58147 13.9874 3.51897 14.6772 4.70424Z" fill="white"/>
</svg>
